<svg xmlns="http://www.w3.org/2000/svg" xmlns:xlink="http://www.w3.org/1999/xlink" version="1.1" width="1000" height="1000" viewBox="0 0 1000 1000" xml:space="preserve">
<defs>
</defs>
<rect x="0" y="0" width="100%" height="100%" fill="rgba(255,255,255,0)"/>
<g transform="matrix(1.4641 0 0 1.4641 499.7462 499.7462)" id="255861">
<g style="" vector-effect="non-scaling-stroke">
		<g transform="matrix(0.1333 0 0 -0.1333 -42.7413 10.5839)">
<path style="stroke: none; stroke-width: 1; stroke-dasharray: none; stroke-linecap: butt; stroke-dashoffset: 0; stroke-linejoin: miter; stroke-miterlimit: 4; is-custom-font: none; font-file-url: none; fill-rule: nonzero; opacity: 1;" transform=" translate(-2240, -2480)" d="M 1760 4880 l 0 -80 l -160 0 l -160 0 l 0 -160 l 0 -160 l -80 0 l -80 0 l 0 -400 l 0 -400 l -80 0 l -80 0 l 0 -240 l 0 -240 l -80 0 l -80 0 l 0 -80 l 0 -80 l -80 0 l -80 0 l 0 -80 l 0 -80 l -240 0 l -240 0 l 0 -80 l 0 -80 l -80 0 l -80 0 l 0 -80 l 0 -80 l -80 0 l -80 0 l 0 -1280 l 0 -1280 l 1360 0 l 1360 0 l 0 240 l 0 240 l -80 0 l -80 0 l 0 160 l 0 160 l -400 0 l -400 0 l 0 80 l 0 80 l -80 0 l -80 0 l 0 80 l 0 80 l -160 0 l -160 0 l 0 160 l 0 160 l -80 0 l -80 0 l 0 160 l 0 160 l -80 0 l -80 0 l 0 160 l 0 160 l -80 0 l -80 0 l 0 320 l 0 320 l 80 0 l 80 0 l 0 80 l 0 80 l 80 0 l 80 0 l 0 80 l 0 80 l 80 0 l 80 0 l 0 240 l 0 240 l 80 0 l 80 0 l 0 400 l 0 400 l 80 0 l 80 0 l 0 -560 l 0 -560 l -80 0 l -80 0 l 0 -320 l 0 -320 l -80 0 l -80 0 l 0 -80 l 0 -80 l -80 0 l -80 0 l 0 -240 l 0 -240 l 80 0 l 80 0 l 0 160 l 0 160 l 80 0 l 80 0 l 0 80 l 0 80 l 80 0 l 80 0 l 0 320 l 0 320 l 80 0 l 80 0 l 0 640 l 0 640 l -80 0 l -80 0 l 0 160 l 0 160 l 160 0 l 160 0 l 0 80 l 0 80 l 560 0 l 560 0 l 0 -80 l 0 -80 l 160 0 l 160 0 l 0 -80 l 0 -80 l -400 0 l -400 0 l 0 -80 l 0 -80 l -80 0 l -80 0 l 0 -880 l 0 -880 l -80 0 l -80 0 l 0 -320 l 0 -320 l -80 0 l -80 0 l 0 -400 l 0 -400 l 80 0 l 80 0 l 0 -80 l 0 -80 l 80 0 l 80 0 l 0 160 l 0 160 l -80 0 l -80 0 l 0 240 l 0 240 l 80 0 l 80 0 l 0 320 l 0 320 l 80 0 l 80 0 l 0 880 l 0 880 l 80 0 l 80 0 l 0 80 l 0 80 l 400 0 l 400 0 l 0 -480 l 0 -480 l 80 0 l 80 0 l 0 -80 l 0 -80 l 80 0 l 80 0 l 0 -80 l 0 -80 l -160 0 l -160 0 l 0 -400 l 0 -400 l -80 0 l -80 0 l 0 400 l 0 400 l -80 0 l -80 0 l 0 -320 l 0 -320 l -80 0 l -80 0 l 0 -960 l 0 -960 l -80 0 l -80 0 l 0 -240 l 0 -240 l 80 0 l 80 0 l 0 160 l 0 160 l 80 0 l 80 0 l 0 480 l 0 480 l 80 0 l 80 0 l 0 -160 l 0 -160 l 80 0 l 80 0 l 0 -80 l 0 -80 l 80 0 l 80 0 l 0 -80 l 0 -80 l 80 0 l 80 0 l 0 -80 l 0 -80 l -80 0 l -80 0 l 0 -80 l 0 -80 l -80 0 l -80 0 l 0 -80 l 0 -80 l -80 0 l -80 0 l 0 -80 l 0 -80 l 560 0 l 560 0 l 0 480 l 0 480 l -80 0 l -80 0 l 0 400 l 0 400 l -160 0 l -160 0 l 0 80 l 0 80 l -240 0 l -240 0 l 0 80 l 0 80 l 80 0 l 80 0 l 0 400 l 0 400 l 160 0 l 160 0 l 0 240 l 0 240 l -80 0 l -80 0 l 0 80 l 0 80 l -80 0 l -80 0 l 0 480 l 0 480 l -80 0 l -80 0 l 0 160 l 0 160 l -160 0 l -160 0 l 0 80 l 0 80 l -720 0 l -720 0 l 0 -80 z m -1120 -2560 l 0 -400 l 80 0 l 80 0 l 0 -160 l 0 -160 l 80 0 l 80 0 l 0 -160 l 0 -160 l 80 0 l 80 0 l 0 -80 l 0 -80 l 80 0 l 80 0 l 0 -80 l 0 -80 l 80 0 l 80 0 l 0 -80 l 0 -80 l 80 0 l 80 0 l 0 -80 l 0 -80 l 400 0 l 400 0 l 0 -160 l 0 -160 l 80 0 l 80 0 l 0 -80 l 0 -80 l -1200 0 l -1200 0 l 0 1120 l 0 1120 l 80 0 l 80 0 l 0 80 l 0 80 l 80 0 l 80 0 l 0 80 l 0 80 l 80 0 l 80 0 l 0 -400 z m 2720 -320 l 0 -240 l 240 0 l 240 0 l 0 -80 l 0 -80 l 160 0 l 160 0 l 0 -400 l 0 -400 l 80 0 l 80 0 l 0 -320 l 0 -320 l -320 0 l -320 0 l 0 80 l 0 80 l 160 0 l 160 0 l 0 160 l 0 160 l 80 0 l 80 0 l 0 80 l 0 80 l -160 0 l -160 0 l 0 80 l 0 80 l -80 0 l -80 0 l 0 80 l 0 80 l -80 0 l -80 0 l 0 80 l 0 80 l 80 0 l 80 0 l 0 160 l 0 160 l -80 0 l -80 0 l 0 -80 l 0 -80 l -160 0 l -160 0 l 0 80 l 0 80 l 80 0 l 80 0 l 0 80 l 0 80 l -80 0 l -80 0 l 0 240 l 0 240 l 80 0 l 80 0 l 0 -240 z" stroke-linecap="round"/>
</g>
		<g transform="matrix(0.1333 0 0 -0.1333 -85.344 -32.0507)">
<path style="stroke: none; stroke-width: 1; stroke-dasharray: none; stroke-linecap: butt; stroke-dashoffset: 0; stroke-linejoin: miter; stroke-miterlimit: 4; is-custom-font: none; font-file-url: none; fill-rule: nonzero; opacity: 1;" transform=" translate(-1920, -2800)" d="M 1920 3920 l 0 -400 l 80 0 l 80 0 l 0 -160 l 0 -160 l -80 0 l -80 0 l 0 -400 l 0 -400 l -80 0 l -80 0 l 0 -400 l 0 -400 l -80 0 l -80 0 l 0 -160 l 0 -160 l 80 0 l 80 0 l 0 80 l 0 80 l 80 0 l 80 0 l 0 400 l 0 400 l 80 0 l 80 0 l 0 400 l 0 400 l 80 0 l 80 0 l 0 320 l 0 320 l -80 0 l -80 0 l 0 240 l 0 240 l 80 0 l 80 0 l 0 80 l 0 80 l -160 0 l -160 0 l 0 -400 z" stroke-linecap="round"/>
</g>
		<g transform="matrix(0.1333 0 0 -0.1333 53.3254 -181.3361)">
<path style="stroke: none; stroke-width: 1; stroke-dasharray: none; stroke-linecap: butt; stroke-dashoffset: 0; stroke-linejoin: miter; stroke-miterlimit: 4; is-custom-font: none; font-file-url: none; fill-rule: nonzero; opacity: 1;" transform=" translate(-2960, -3920)" d="M 2720 3920 l 0 -80 l 240 0 l 240 0 l 0 80 l 0 80 l -240 0 l -240 0 l 0 -80 z" stroke-linecap="round"/>
</g>
		<g transform="matrix(0.1333 0 0 -0.1333 63.9947 -128.0054)">
<path style="stroke: none; stroke-width: 1; stroke-dasharray: none; stroke-linecap: butt; stroke-dashoffset: 0; stroke-linejoin: miter; stroke-miterlimit: 4; is-custom-font: none; font-file-url: none; fill-rule: nonzero; opacity: 1;" transform=" translate(-3040, -3520)" d="M 2880 3600 l 0 -80 l 80 0 l 80 0 l 0 -80 l 0 -80 l 80 0 l 80 0 l 0 160 l 0 160 l -160 0 l -160 0 l 0 -80 z" stroke-linecap="round"/>
</g>
		<g transform="matrix(0.1333 0 0 -0.1333 31.9919 95.9599)">
<path style="stroke: none; stroke-width: 1; stroke-dasharray: none; stroke-linecap: butt; stroke-dashoffset: 0; stroke-linejoin: miter; stroke-miterlimit: 4; is-custom-font: none; font-file-url: none; fill-rule: nonzero; opacity: 1;" transform=" translate(-2800, -1840)" d="M 2880 2880 l 0 -160 l -80 0 l -80 0 l 0 -480 l 0 -480 l -80 0 l -80 0 l 0 -400 l 0 -400 l 80 0 l 80 0 l 0 -160 l 0 -160 l 80 0 l 80 0 l 0 240 l 0 240 l -80 0 l -80 0 l 0 240 l 0 240 l 80 0 l 80 0 l 0 480 l 0 480 l 80 0 l 80 0 l 0 240 l 0 240 l -80 0 l -80 0 l 0 -160 z" stroke-linecap="round"/>
</g>
</g>
</g>
<style>
    path {
      fill: black;
    }
    @media (prefers-color-scheme: dark) {
      path {
        fill: white;
      }
    }
</style>
</svg>